<svg xmlns="http://www.w3.org/2000/svg" width="1200" height="720" viewBox="0 0 1200 720">
  <rect width="1200" height="720" fill="#ffffff"/>
  <rect y="470" width="1200" height="250" fill="#edf5ff"/>
  <path d="M0 560 H1200" stroke="#c7daef" stroke-width="8"/>
  <path d="M90 605 H510" stroke="#9fc3e6" stroke-width="10" stroke-linecap="round"/>
  <path d="M560 605 H980" stroke="#9fc3e6" stroke-width="10" stroke-linecap="round"/>
  <g transform="translate(255,285)">
    <rect x="0" y="110" width="420" height="110" rx="22" fill="#0a7a3f"/>
    <rect x="285" y="40" width="135" height="90" rx="14" fill="#19a35a"/>
    <rect x="300" y="55" width="60" height="40" rx="8" fill="#d8f1df"/>
    <circle cx="90" cy="235" r="45" fill="#263543"/>
    <circle cx="90" cy="235" r="20" fill="#b9c7d3"/>
    <circle cx="350" cy="235" r="45" fill="#263543"/>
    <circle cx="350" cy="235" r="20" fill="#b9c7d3"/>
    <rect x="110" y="55" width="120" height="25" rx="12" fill="#0a7a3f"/>
    <circle cx="110" cy="65" r="28" fill="#ffc34d"/>
    <rect x="95" y="42" width="30" height="18" rx="8" fill="#f8e6b5"/>
    <rect x="155" y="75" width="120" height="18" rx="8" fill="#263543"/>
    <rect x="22" y="126" width="110" height="54" rx="10" fill="#fbae17"/>
    <path d="M52 140 L82 140 L67 165 Z" fill="#ffffff"/>
  </g>
  <g stroke="#6fa4d8" stroke-width="10" stroke-linecap="round">
    <path d="M770 200 H970"/>
    <path d="M820 250 H1040"/>
    <path d="M720 300 H920"/>
  </g>
</svg>
