<svg xmlns="http://www.w3.org/2000/svg" width="640" height="220" viewBox="0 0 640 220" role="img" aria-label="Payment options: eSewa, Khalti, fonepay, VISA">
  <rect width="640" height="220" fill="#ffffff"/>

  <g transform="translate(36,36)">
    <circle cx="30" cy="30" r="26" fill="#60b844"/>
    <text x="30" y="39" text-anchor="middle" font-family="Arial, Helvetica, sans-serif" font-weight="700" font-size="42" fill="#ffffff">e</text>
    <text x="70" y="42" font-family="Georgia, 'Times New Roman', serif" font-size="58" fill="#111111">Sewa</text>
  </g>

  <g transform="translate(362,36)">
    <path d="M16 10 h64 a8 8 0 0 1 8 8 v36 a8 8 0 0 1 -8 8 h-24 l-16 16 -2 -16 h-22 a8 8 0 0 1 -8 -8 v-36 a8 8 0 0 1 8 -8z" fill="#5d2ca9"/>
    <text x="42" y="50" text-anchor="middle" font-family="Arial, Helvetica, sans-serif" font-weight="800" font-size="52" fill="#ffffff">K</text>
    <rect x="94" y="20" width="170" height="44" rx="6" fill="none" stroke="#8b63c6" stroke-width="4"/>
    <text x="108" y="51" font-family="Arial, Helvetica, sans-serif" font-size="42" font-weight="700" fill="#5d2ca9">khalti</text>
    <rect x="95" y="14" width="9" height="10" fill="#f8a41a"/>
  </g>

  <g transform="translate(28,128)">
    <rect x="0" y="0" width="162" height="62" rx="8" fill="#e1161a"/>
    <text x="79" y="42" text-anchor="middle" font-family="Arial, Helvetica, sans-serif" font-size="56" font-weight="800" fill="#ffffff">fone</text>
    <text x="173" y="45" font-family="Arial, Helvetica, sans-serif" font-size="62" font-weight="700" fill="#111111">pay</text>
  </g>

  <g transform="translate(360,130)">
    <text x="0" y="56" font-family="Arial Black, Arial, Helvetica, sans-serif" font-size="96" font-style="italic" fill="#1a66ba">VISA</text>
  </g>
</svg>
