<svg xmlns="http://www.w3.org/2000/svg" width="1200" height="720" viewBox="0 0 1200 720">
  <defs>
    <linearGradient id="sky" x1="0" y1="0" x2="0" y2="1">
      <stop offset="0%" stop-color="#eaf7ff"/>
      <stop offset="100%" stop-color="#ffffff"/>
    </linearGradient>
    <linearGradient id="field" x1="0" y1="0" x2="1" y2="0">
      <stop offset="0%" stop-color="#3f9f5a"/>
      <stop offset="100%" stop-color="#2f7f48"/>
    </linearGradient>
  </defs>
  <rect width="1200" height="720" fill="url(#sky)"/>
  <rect x="0" y="430" width="1200" height="290" fill="#e8f4e6"/>
  <path d="M0 500 C220 430, 420 570, 640 500 C860 430, 1020 580, 1200 510 L1200 720 L0 720 Z" fill="url(#field)"/>
  <path d="M0 560 C210 500, 430 640, 670 560 C860 500, 1030 640, 1200 575 L1200 720 L0 720 Z" fill="#2c6d3f"/>
  <rect x="120" y="260" width="140" height="180" rx="12" fill="#f4f8f1" stroke="#b6cfb6" stroke-width="6"/>
  <rect x="145" y="292" width="90" height="110" rx="8" fill="#d7ead5"/>
  <polygon points="105,275 190,220 275,275" fill="#8cbf8f"/>
  <g fill="#2f7f48">
    <circle cx="170" cy="515" r="18"/>
    <circle cx="235" cy="555" r="15"/>
    <circle cx="300" cy="520" r="20"/>
    <circle cx="365" cy="560" r="16"/>
    <circle cx="430" cy="525" r="18"/>
    <circle cx="495" cy="565" r="15"/>
    <circle cx="560" cy="530" r="19"/>
    <circle cx="625" cy="570" r="16"/>
    <circle cx="690" cy="535" r="18"/>
    <circle cx="755" cy="568" r="15"/>
    <circle cx="820" cy="532" r="19"/>
    <circle cx="885" cy="566" r="16"/>
    <circle cx="950" cy="528" r="18"/>
  </g>
  <g fill="#f7c24a" stroke="#d59f2d" stroke-width="4">
    <circle cx="1020" cy="145" r="55"/>
    <path d="M1020 60 L1020 30 M1020 260 L1020 230 M935 145 L905 145 M1135 145 L1105 145"/>
  </g>
</svg>
